<?xml version="1.0" encoding="UTF-8" standalone="no"?>
<!-- Created with Inkscape (http://www.inkscape.org/) -->

<svg
   xmlns:dc="http://purl.org/dc/elements/1.1/"
   xmlns:cc="http://creativecommons.org/ns#"
   xmlns:rdf="http://www.w3.org/1999/02/22-rdf-syntax-ns#"
   xmlns:svg="http://www.w3.org/2000/svg"
   xmlns="http://www.w3.org/2000/svg"
   xmlns:sodipodi="http://sodipodi.sourceforge.net/DTD/sodipodi-0.dtd"
   xmlns:inkscape="http://www.inkscape.org/namespaces/inkscape"
   width="3280"
   height="860"
   viewBox="0 0 3280.0001 860.00005"
   version="1.1"
   id="svg8"
   inkscape:version="0.92.5 (2060ec1f9f, 2020-04-08)"
   sodipodi:docname="logo-main.svg"
   inkscape:export-filename="/home/felicianotech/Projects/gothamhq/graphics/logo/logo-full-light-1000x1086.png"
   inkscape:export-xdpi="7.9000001"
   inkscape:export-ydpi="7.9000001">
  <defs
     id="defs2" />
  <sodipodi:namedview
     id="base"
     pagecolor="#ffffff"
     bordercolor="#666666"
     borderopacity="1.0"
     inkscape:pageopacity="0.0"
     inkscape:pageshadow="2"
     inkscape:zoom="0.34616367"
     inkscape:cx="1083.4444"
     inkscape:cy="-742.57049"
     inkscape:document-units="px"
     inkscape:current-layer="layer1"
     showgrid="false"
     units="px"
     inkscape:pagecheckerboard="true"
     inkscape:window-width="3728"
     inkscape:window-height="2032"
     inkscape:window-x="112"
     inkscape:window-y="54"
     inkscape:window-maximized="1"
     showguides="true"
     inkscape:guide-bbox="true"
     fit-margin-top="0"
     fit-margin-left="0"
     fit-margin-right="0"
     fit-margin-bottom="0">
    <sodipodi:guide
       position="4637.8294,-4407.4584"
       orientation="0,1"
       id="guide893"
       inkscape:locked="false" />
    <sodipodi:guide
       position="4639.9879,-1255.0722"
       orientation="1,0"
       id="guide1384"
       inkscape:locked="false" />
    <sodipodi:guide
       position="4789.9904,-1256.724"
       orientation="1,0"
       id="guide1386"
       inkscape:locked="false" />
    <sodipodi:guide
       position="4640.9455,-1257.49"
       orientation="0,1"
       id="guide1388"
       inkscape:locked="false" />
    <sodipodi:guide
       position="4791.2112,-1407.4844"
       orientation="0,1"
       id="guide1390"
       inkscape:locked="false" />
    <sodipodi:guide
       position="4741.979,-4557.2963"
       orientation="0,1"
       id="guide1585"
       inkscape:locked="false" />
    <sodipodi:guide
       position="4695.6353,-7931.8286"
       orientation="0,1"
       id="guide5783"
       inkscape:locked="false" />
    <sodipodi:guide
       position="4746.7027,-8081.9667"
       orientation="0,1"
       id="guide5785"
       inkscape:locked="false" />
  </sodipodi:namedview>
  <metadata
     id="metadata5">
    <rdf:RDF>
      <cc:Work
         rdf:about="">
        <dc:format>image/svg+xml</dc:format>
        <dc:type
           rdf:resource="http://purl.org/dc/dcmitype/StillImage" />
        <dc:title></dc:title>
      </cc:Work>
    </rdf:RDF>
  </metadata>
  <g
     inkscape:label="Layer 1"
     inkscape:groupmode="layer"
     id="layer1"
     transform="translate(1656.6272,12752.516)">
    <rect
       style="opacity:1;vector-effect:none;fill:#000000;fill-opacity:1;stroke:none;stroke-width:56.78294754;stroke-linecap:round;stroke-linejoin:round;stroke-miterlimit:4;stroke-dasharray:none;stroke-dashoffset:0;stroke-opacity:1"
       id="rect859-2-0-1-7-5-7-3"
       width="3280"
       height="860"
       x="-1656.6272"
       y="-12752.516"
       rx="40"
       ry="40" />
    <flowRoot
       xml:space="preserve"
       id="flowRoot938"
       style="font-style:normal;font-weight:normal;font-size:40px;line-height:1.25;font-family:sans-serif;letter-spacing:0px;word-spacing:0px;fill:#000000;fill-opacity:1;stroke:none"><flowRegion
         id="flowRegion940"><rect
           id="rect942"
           width="1308.5714"
           height="897.14288"
           x="-4845.7144"
           y="-365.71429" /></flowRegion><flowPara
         id="flowPara944" /></flowRoot>    <rect
       style="opacity:1;vector-effect:none;fill:#ffffff;fill-opacity:1;stroke:none;stroke-width:55.39799881;stroke-linecap:round;stroke-linejoin:round;stroke-miterlimit:4;stroke-dasharray:none;stroke-dashoffset:0;stroke-opacity:1"
       id="rect859-2-0-1-7-5-7"
       width="3200"
       height="800"
       x="-1616.6272"
       y="-12722.516"
       rx="40"
       ry="40" />
    <rect
       style="opacity:1;vector-effect:none;fill:#242021;fill-opacity:1;stroke:none;stroke-width:49.23752975;stroke-linecap:round;stroke-linejoin:round;stroke-miterlimit:4;stroke-dasharray:none;stroke-dashoffset:0;stroke-opacity:1"
       id="rect859-2-0-1-7-5"
       width="2400"
       height="700"
       x="-1566.6272"
       y="-12672.516" />
    <g
       aria-label="Strawberry"
       transform="matrix(1.8466043,0,0,1.8466043,-12074.506,-15171.129)"
       style="font-style:normal;font-variant:normal;font-weight:bold;font-stretch:normal;font-size:194.95243835px;line-height:1.25;font-family:sans-serif;-inkscape-font-specification:'sans-serif Bold';letter-spacing:-6px;word-spacing:0px;fill:#ffffff;fill-opacity:1;stroke:none"
       id="flowRoot861-4-6-5-2-3">
      <path
         d="m 5862.515,1463.4124 v 30.0806 q -11.7086,-5.2356 -22.846,-7.901 -11.1374,-2.6653 -21.0374,-2.6653 -13.1364,0 -19.4191,3.6173 -6.2826,3.6172 -6.2826,11.2326 0,5.7115 4.1884,8.948 4.2836,3.1413 15.4211,5.4259 l 15.6114,3.1413 q 23.7027,4.7596 33.6978,14.4692 9.9951,9.7095 9.9951,27.6055 0,23.5124 -13.9931,35.0305 -13.898,11.423 -42.5507,11.423 -13.5172,0 -27.1296,-2.5701 -13.6124,-2.5702 -27.2248,-7.6154 v -30.9372 q 13.6124,7.2345 26.2729,10.947 12.7557,3.6173 24.5594,3.6173 11.9942,0 18.372,-3.9981 6.3778,-3.998 6.3778,-11.423 0,-6.6634 -4.3788,-10.2807 -4.2836,-3.6172 -17.2296,-6.473 l -14.1836,-3.1413 q -21.3229,-4.5692 -31.2229,-14.5643 -9.8047,-9.9952 -9.8047,-26.9393 0,-21.2277 13.7076,-32.6507 13.7076,-11.423 39.4093,-11.423 11.7086,0 24.0835,1.8087 12.3749,1.7134 25.6066,5.2355 z"
         style="font-size:194.95243835px;letter-spacing:-6px;fill:#ffffff;fill-opacity:1"
         id="path884"
         inkscape:connector-curvature="0" />
      <path
         d="m 5933.7154,1464.1739 v 30.271 h 35.1257 v 24.369 h -35.1257 v 45.216 q 0,7.425 2.9509,10.0904 2.9509,2.5701 11.7086,2.5701 h 17.5152 v 24.3691 h -29.2238 q -20.1806,0 -28.6527,-8.3769 -8.3768,-8.472 -8.3768,-28.6527 v -45.216 h -16.9441 v -24.369 h 16.9441 v -30.271 z"
         style="font-size:194.95243835px;letter-spacing:-6px;fill:#ffffff;fill-opacity:1"
         id="path886"
         inkscape:connector-curvature="0" />
      <path
         d="m 6062.8875,1523.4783 q -4.474,-2.0942 -8.948,-3.0461 -4.3789,-1.0471 -8.8529,-1.0471 -13.1364,0 -20.2758,8.472 -7.0442,8.3769 -7.0442,24.0835 v 49.1189 h -34.0786 v -106.6146 h 34.0786 v 17.5152 q 6.5683,-10.4711 15.0403,-15.2306 8.5673,-4.8548 20.4662,-4.8548 1.7135,0 3.7125,0.1904 1.999,0.095 5.8067,0.5711 z"
         style="font-size:194.95243835px;letter-spacing:-6px;fill:#ffffff;fill-opacity:1"
         id="path888"
         inkscape:connector-curvature="0" />
      <path
         d="m 6121.6178,1553.0829 q -10.6615,0 -16.0874,3.6173 -5.3307,3.6173 -5.3307,10.6614 0,6.4731 4.2836,10.1856 4.3788,3.6172 12.0893,3.6172 9.6144,0 16.1826,-6.8538 6.5682,-6.949 6.5682,-17.3248 v -3.9029 z m 52.0698,-12.8509 v 60.8275 h -34.3642 v -15.8018 q -6.8538,9.7095 -15.421,14.1835 -8.5673,4.3788 -20.847,4.3788 -16.5633,0 -26.9392,-9.6143 -10.2807,-9.7096 -10.2807,-25.1306 0,-18.7528 12.8508,-27.5104 12.9461,-8.7576 40.5517,-8.7576 h 20.0854 v -2.6654 q 0,-8.0913 -6.3778,-11.8037 -6.3779,-3.8077 -19.8951,-3.8077 -10.947,0 -20.371,2.1894 -9.424,2.1894 -17.5152,6.5682 v -25.9873 q 10.947,-2.6653 21.9892,-3.998 11.0423,-1.4279 22.0845,-1.4279 28.843,0 41.5987,11.423 12.8509,11.3278 12.8509,36.9343 z"
         style="font-size:194.95243835px;letter-spacing:-6px;fill:#ffffff;fill-opacity:1"
         id="path890"
         inkscape:connector-curvature="0" />
      <path
         d="m 6189.8672,1494.4449 h 33.1267 l 17.896,73.4879 17.9912,-73.4879 h 28.4623 l 17.8961,72.7264 17.9912,-72.7264 h 33.1267 l -28.0816,106.6146 h -37.2199 l -17.9912,-73.2976 -17.896,73.2976 h -37.2199 z"
         style="font-size:194.95243835px;letter-spacing:-6px;fill:#ffffff;fill-opacity:1"
         id="path892"
         inkscape:connector-curvature="0" />
      <path
         d="m 6430.2231,1579.0702 q 10.9471,0 16.6586,-7.9961 5.8067,-7.9961 5.8067,-23.2267 0,-15.2307 -5.8067,-23.2268 -5.7115,-7.9961 -16.6586,-7.9961 -10.947,0 -16.8489,8.0913 -5.8067,7.9961 -5.8067,23.1316 0,15.1354 5.8067,23.2267 5.9019,7.9961 16.8489,7.9961 z m -22.6556,-69.0139 q 7.0442,-9.3288 15.6115,-13.7076 8.5672,-4.474 19.7046,-4.474 19.7047,0 32.3652,15.7066 12.6605,15.6114 12.6605,40.2661 0,24.6546 -12.6605,40.3612 -12.6605,15.6114 -32.3652,15.6114 -11.1374,0 -19.7046,-4.3788 -8.5673,-4.474 -15.6115,-13.8028 v 15.4211 h -34.0786 v -148.1182 h 34.0786 z"
         style="font-size:194.95243835px;letter-spacing:-6px;fill:#ffffff;fill-opacity:1"
         id="path894"
         inkscape:connector-curvature="0" />
      <path
         d="m 6613.4641,1547.4666 v 9.7095 h -79.6754 q 1.2375,11.9942 8.6624,17.9913 7.425,5.997 20.7518,5.997 10.7566,0 21.9892,-3.1413 11.3279,-3.2365 23.2268,-9.7095 v 26.2729 q -12.0893,4.5691 -24.1787,6.8537 -12.0893,2.3798 -24.1786,2.3798 -28.9383,0 -45.0257,-14.6595 -15.9922,-14.7547 -15.9922,-41.3131 0,-26.0825 15.7067,-41.0276 15.8018,-14.9451 43.4073,-14.9451 25.1306,0 40.1709,15.1355 15.1355,15.1354 15.1355,40.4564 z m -35.0306,-11.3278 q 0,-9.7095 -5.7115,-15.6114 -5.6163,-5.9971 -14.7547,-5.9971 -9.8999,0 -16.0873,5.6163 -6.1875,5.5211 -7.7106,15.9922 z"
         style="font-size:194.95243835px;letter-spacing:-6px;fill:#ffffff;fill-opacity:1"
         id="path896"
         inkscape:connector-curvature="0" />
      <path
         d="m 6712.4604,1523.4783 q -4.474,-2.0942 -8.948,-3.0461 -4.3788,-1.0471 -8.8528,-1.0471 -13.1364,0 -20.2758,8.472 -7.0442,8.3769 -7.0442,24.0835 v 49.1189 h -34.0786 v -106.6146 h 34.0786 v 17.5152 q 6.5682,-10.4711 15.0403,-15.2306 8.5672,-4.8548 20.4662,-4.8548 1.7134,0 3.7125,0.1904 1.999,0.095 5.8067,0.5711 z"
         style="font-size:194.95243835px;letter-spacing:-6px;fill:#ffffff;fill-opacity:1"
         id="path898"
         inkscape:connector-curvature="0" />
      <path
         d="m 6802.604,1523.4783 q -4.474,-2.0942 -8.948,-3.0461 -4.3788,-1.0471 -8.8528,-1.0471 -13.1365,0 -20.2758,8.472 -7.0442,8.3769 -7.0442,24.0835 v 49.1189 h -34.0786 v -106.6146 h 34.0786 v 17.5152 q 6.5682,-10.4711 15.0403,-15.2306 8.5672,-4.8548 20.4661,-4.8548 1.7135,0 3.7125,0.1904 1.999,0.095 5.8067,0.5711 z"
         style="font-size:194.95243835px;letter-spacing:-6px;fill:#ffffff;fill-opacity:1"
         id="path900"
         inkscape:connector-curvature="0" />
      <path
         d="m 6799.555,1494.4449 h 34.0786 l 28.6526,72.3456 24.3691,-72.3456 h 34.0786 l -44.8353,116.7049 q -6.7586,17.8008 -15.8018,24.845 -8.948,7.1394 -23.7027,7.1394 h -19.7046 v -22.3701 h 10.6614 q 8.6625,0 12.5653,-2.7605 3.9981,-2.7606 6.1875,-9.8999 l 0.9519,-2.951 z"
         style="font-size:194.95243835px;letter-spacing:-6px;fill:#ffffff;fill-opacity:1"
         id="path902"
         inkscape:connector-curvature="0" />
    </g>
    <rect
       style="opacity:1;vector-effect:none;fill:#a20d2c;fill-opacity:1;stroke:none;stroke-width:3.65130043;stroke-linecap:round;stroke-linejoin:round;stroke-miterlimit:4;stroke-dasharray:none;stroke-dashoffset:0;stroke-opacity:1"
       id="rect815-0-5-3-7-5-9-9-2"
       width="700"
       height="700"
       x="833.37286"
       y="-12672.516" />
    <g
       aria-label="SSG"
       transform="matrix(1.8668305,0,0,1.8668305,-9845.273,-15142.172)"
       style="font-style:normal;font-variant:normal;font-weight:bold;font-stretch:normal;font-size:157.12905884px;line-height:1.25;font-family:sans-serif;-inkscape-font-specification:'sans-serif Bold';letter-spacing:-12px;word-spacing:0px;fill:#ffffff;fill-opacity:1;stroke:none"
       id="flowRoot861-3-8-7-6-4-1-3">
      <path
         d="m 5839.8542,1456.6529 v 24.2446 q -9.437,-4.2198 -18.4136,-6.3681 -8.9766,-2.1482 -16.9558,-2.1482 -10.5878,0 -15.6515,2.9155 -5.0638,2.9155 -5.0638,9.0533 0,4.6034 3.3759,7.212 3.4525,2.5319 12.4291,4.3732 l 12.5826,2.5319 q 19.1041,3.8361 27.16,11.6619 8.0559,7.8258 8.0559,22.2497 0,18.9506 -11.2783,28.2341 -11.2015,9.2068 -34.2952,9.2068 -10.8947,0 -21.8661,-2.0715 -10.9714,-2.0715 -21.9428,-6.1379 v -24.935 q 10.9714,5.831 21.1755,8.8232 10.281,2.9155 19.7946,2.9155 9.6671,0 14.8076,-3.2224 5.1405,-3.2224 5.1405,-9.2068 0,-5.3706 -3.5293,-8.2861 -3.4526,-2.9155 -13.8869,-5.2172 l -11.4318,-2.5318 q -17.186,-3.6827 -25.1652,-11.7387 -7.9024,-8.0559 -7.9024,-21.7126 0,-17.1093 11.0481,-26.3161 11.0481,-9.2068 31.7634,-9.2068 9.4369,0 19.4109,1.4578 9.9741,1.381 20.6386,4.2197 z"
         style="font-size:157.12905884px;fill:#ffffff;fill-opacity:1"
         id="path905"
         inkscape:connector-curvature="0" />
      <path
         d="m 5933.9623,1456.6529 v 24.2446 q -9.4369,-4.2198 -18.4135,-6.3681 -8.9766,-2.1482 -16.9559,-2.1482 -10.5878,0 -15.6515,2.9155 -5.0637,2.9155 -5.0637,9.0533 0,4.6034 3.3758,7.212 3.4525,2.5319 12.4292,4.3732 l 12.5826,2.5319 q 19.104,3.8361 27.16,11.6619 8.0559,7.8258 8.0559,22.2497 0,18.9506 -11.2783,28.2341 -11.2016,9.2068 -34.2953,9.2068 -10.8947,0 -21.8661,-2.0715 -10.9714,-2.0715 -21.9428,-6.1379 v -24.935 q 10.9714,5.831 21.1756,8.8232 10.2809,2.9155 19.7946,2.9155 9.6671,0 14.8075,-3.2224 5.1405,-3.2224 5.1405,-9.2068 0,-5.3706 -3.5293,-8.2861 -3.4525,-2.9155 -13.8869,-5.2172 l -11.4317,-2.5318 q -17.186,-3.6827 -25.1652,-11.7387 -7.9025,-8.0559 -7.9025,-21.7126 0,-17.1093 11.0481,-26.3161 11.0482,-9.2068 31.7634,-9.2068 9.437,0 19.411,1.4578 9.974,1.381 20.6385,4.2197 z"
         style="font-size:157.12905884px;fill:#ffffff;fill-opacity:1"
         id="path907"
         inkscape:connector-curvature="0" />
      <path
         d="m 6058.3761,1559.0784 q -11.0481,5.3706 -22.9402,8.0559 -11.8921,2.6853 -24.5514,2.6853 -28.6178,0 -45.3434,-15.9584 -16.7257,-16.0351 -16.7257,-43.4253 0,-27.6971 17.0326,-43.5788 17.0325,-15.8817 46.6477,-15.8817 11.4317,0 21.8661,2.1483 10.511,2.1482 19.7946,6.368 v 23.7075 q -9.5904,-5.4474 -19.1041,-8.1327 -9.437,-2.6853 -18.9506,-2.6853 -17.6464,0 -27.2368,9.8973 -9.5136,9.8206 -9.5136,28.1574 0,18.1834 9.2067,28.0807 9.2068,9.8973 26.1626,9.8973 4.6034,0 8.5163,-0.5371 3.9896,-0.6138 7.1353,-1.8414 v -22.2497 h -18.03 v -19.7946 h 46.0339 z"
         style="font-size:157.12905884px;fill:#ffffff;fill-opacity:1"
         id="path909"
         inkscape:connector-curvature="0" />
    </g>
  </g>
</svg>
