<?xml version="1.0" encoding="UTF-8" standalone="no"?>
<!-- Created with Inkscape (http://www.inkscape.org/) -->

<svg
   width="2661.2063"
   height="4000"
   viewBox="0 0 2661.2063 4000"
   version="1.1"
   id="svg8"
   inkscape:version="1.1 (c4e8f9e, 2021-05-24)"
   sodipodi:docname="logo.svg"
   inkscape:export-filename="/home/felicianotech/Projects/strawberryssg/graphics/logo-ideas/logo-sample-3.png"
   inkscape:export-xdpi="19.200001"
   inkscape:export-ydpi="19.200001"
   xmlns:inkscape="http://www.inkscape.org/namespaces/inkscape"
   xmlns:sodipodi="http://sodipodi.sourceforge.net/DTD/sodipodi-0.dtd"
   xmlns="http://www.w3.org/2000/svg"
   xmlns:svg="http://www.w3.org/2000/svg"
   xmlns:rdf="http://www.w3.org/1999/02/22-rdf-syntax-ns#"
   xmlns:cc="http://creativecommons.org/ns#"
   xmlns:dc="http://purl.org/dc/elements/1.1/">
  <defs
     id="defs2" />
  <sodipodi:namedview
     id="base"
     pagecolor="#ffffff"
     bordercolor="#666666"
     borderopacity="1.0"
     inkscape:pageopacity="0.0"
     inkscape:pageshadow="2"
     inkscape:zoom="0.044039478"
     inkscape:cx="-1135.345"
     inkscape:cy="4916.0437"
     inkscape:document-units="px"
     inkscape:current-layer="layer1"
     showgrid="false"
     units="px"
     inkscape:pagecheckerboard="true"
     inkscape:window-width="1440"
     inkscape:window-height="847"
     inkscape:window-x="0"
     inkscape:window-y="25"
     inkscape:window-maximized="1"
     fit-margin-top="0"
     fit-margin-left="0"
     fit-margin-right="0"
     fit-margin-bottom="0" />
  <metadata
     id="metadata5">
    <rdf:RDF>
      <cc:Work
         rdf:about="">
        <dc:format>image/svg+xml</dc:format>
        <dc:type
           rdf:resource="http://purl.org/dc/dcmitype/StillImage" />
      </cc:Work>
    </rdf:RDF>
  </metadata>
  <g
     inkscape:label="Layer 1"
     inkscape:groupmode="layer"
     id="layer1"
     transform="translate(-6375.2238,3221.5928)">
    <g
       id="g12324"
       transform="translate(-2.7442926,158.74469)">
      <path
         id="path10149-3"
         d="M 8956.8015,-1499.4194 C 9057.5172,-799.03289 8614.5857,318.17721 7708.5976,551.69981 6802.5188,318.17721 6359.5873,-799.03289 6460.303,-1499.4194 c 100.625,-700.3867 1248.2946,-683.7065 1248.2946,-683.7065 0,0 1147.5789,-16.6802 1248.2039,683.7065 z"
         style="fill:#f95428;stroke-width:9.06532"
         inkscape:connector-curvature="0" />
      <path
         id="path10151-02"
         d="m 7022.3528,-1499.4194 c 68.4069,-476.1197 620.5937,-620.8294 967.2606,-664.7056 -163.2754,-20.6689 -281.0158,-19.0009 -281.0158,-19.0009 0,0 -1147.6696,-16.6802 -1248.2946,683.7065 -100.7157,700.38651 342.2158,1817.59661 1248.2946,2051.11921 99.2652,-25.5823 192.9734,-61.7892 281.0158,-106.8801 C 7274.0424,78.354114 6932.6696,-875.77079 7022.3528,-1499.4194 Z"
         style="fill:#e54728;stroke-width:9.06532"
         inkscape:connector-curvature="0" />
      <path
         id="path10153-6"
         d="m 8827.7114,-3302.3304 c 0,309.0368 -125.2828,588.7926 -327.802,791.3119 -202.5193,202.5192 -482.2751,327.802 -791.3118,327.802 0,-618.0736 501.0402,-1119.1139 1119.1138,-1119.1139 z"
         style="fill:#06b704;fill-opacity:1;stroke-width:9.06532"
         inkscape:connector-curvature="0" />
      <path
         id="path10155-4"
         d="m 7708.5976,-2183.2165 h -0.091 c -309.1274,0 -588.7925,-125.2828 -791.3118,-327.802 -202.5192,-202.5193 -327.802,-482.2751 -327.802,-791.3119 618.0736,-0.01 1119.2045,501.0403 1119.2045,1119.1139 z"
         style="fill:#9ad14b;stroke-width:9.06532"
         inkscape:connector-curvature="0" />
      <path
         id="path10157-38"
         d="m 7708.5069,-2183.2165 c -309.1274,0 -588.7925,-125.2828 -791.3118,-327.802 -202.5192,-202.5193 -327.802,-482.2751 -327.802,-791.3119 z"
         style="fill:#90bc42;stroke-width:9.06532"
         inkscape:connector-curvature="0" />
      <path
         inkscape:connector-curvature="0"
         style="fill:#333333;stroke-width:9.06532"
         d="m 9024.1387,-1509.1284 c -45.2903,-315.1105 -291.1327,-543.4387 -710.9568,-660.327 -57.0843,-15.8915 -113.5522,-28.6917 -167.7447,-39.0171 439.0516,-174.3805 750.2912,-603.4512 750.2912,-1103.8751 0,-37.5576 -30.4322,-67.9899 -67.9899,-67.9899 -515.4813,0 -955.2037,330.286 -1118.8599,790.3147 -58.2175,-164.6081 -152.9229,-315.4822 -280.0368,-442.5961 -224.2216,-224.2308 -522.3438,-347.7186 -839.4396,-347.7095 -37.5485,0 -67.9899,30.4322 -67.9899,67.9899 0,500.4148 311.2396,929.4855 750.2912,1103.866 -54.1925,10.3254 -110.6603,23.1256 -167.7537,39.0171 -419.815,116.8883 -665.6574,345.2165 -710.9478,660.327 -54.3556,378.1779 40.5855,842.60331 253.9559,1242.35671 245.4889,459.9019 616.4871,773.9517 1044.6513,884.2858 5.5661,1.4323 11.2682,2.1484 16.9702,2.1484 5.6931,0 11.3952,-0.7161 16.9703,-2.1484 428.1642,-110.3341 799.1624,-424.3749 1044.6513,-884.2858 213.3704,-399.7534 308.2934,-864.18791 253.9377,-1242.35671 z m -939.702,-1427.3437 c 181.8775,-181.8775 418.6727,-288.8938 672.9822,-305.5739 -34.7565,523.7127 -454.8525,943.7996 -978.5651,978.556 16.6893,-254.3184 123.7144,-491.1046 305.5829,-672.9821 z m -1424.742,-305.5558 c 523.7126,34.7564 943.7996,454.8616 978.5651,978.5651 -254.3185,-16.6801 -491.1047,-123.7053 -672.9822,-305.5828 -181.8775,-181.8776 -288.9027,-418.6637 -305.5829,-672.9823 z m 1990.5358,2911.21881 c -224.0403,419.724304 -557.9614,707.4848 -941.6692,812.1439 -383.7078,-104.6591 -717.6198,-392.419596 -941.6601,-812.1439 -197.2523,-369.5478 -288.9571,-813.63961 -239.3154,-1158.97391 88.2509,-614.0213 1105.7787,-625.4164 1176.2253,-625.4164 2.1666,0 3.4357,0.01 3.7621,0.01 0.6527,0.018 1.3235,0.018 1.9762,0 10.8331,-0.1178 1088.881,-8.467 1179.9874,625.4074 49.6417,345.3343 -42.054,789.42611 -239.3063,1158.97391 z"
         id="path10165-6" />
      <path
         style="clip-rule:evenodd;fill:#333333;fill-opacity:1;fill-rule:evenodd;stroke:none;stroke-width:0.47201;stroke-linejoin:round;stroke-miterlimit:1.414;stroke-opacity:1"
         inkscape:connector-curvature="0"
         id="path885-73-2-6-2-7"
         d="m 8569.0722,-1415.9086 v -57.7051 c 0,-7.504 -3.9743,-14.4463 -10.4436,-18.2479 -13.8852,-8.1577 -38.4156,-22.5706 -53.4387,-31.3981 -7.9344,-4.6597 -17.7901,-4.5549 -25.6207,0.2737 -13.2965,8.1989 -34.0413,20.9903 -47.4322,29.249 -8.0762,4.9798 -12.9945,13.7875 -12.9945,23.275 v 59.0824 c 0,9.4109 4.9939,18.1138 13.1172,22.8627 l 49.4289,28.8926 c 6.5704,3.8423 14.6842,3.9258 21.3348,0.2219 14.434,-8.0411 39.9981,-22.2769 54.7249,-30.4801 6.9857,-3.894 11.314,-11.262 11.314,-19.258 v -6.7685 z" />
      <path
         style="clip-rule:evenodd;fill:#333333;fill-opacity:1;fill-rule:evenodd;stroke:none;stroke-width:0.47201;stroke-linejoin:round;stroke-miterlimit:1.414;stroke-opacity:1"
         inkscape:connector-curvature="0"
         id="path885-73-2-6-0-08"
         d="m 7390.7621,-707.36319 v -57.7051 c 0,-7.504 -3.9743,-14.4463 -10.4436,-18.2479 -13.8852,-8.1577 -38.4156,-22.5706 -53.4387,-31.3981 -7.9344,-4.6597 -17.7901,-4.5549 -25.6207,0.2737 -13.2965,8.1989 -34.0413,20.9903 -47.4322,29.249 -8.0762,4.9798 -12.9945,13.7875 -12.9945,23.275 v 59.0824 c 0,9.4109 4.9939,18.1138 13.1172,22.8627 l 49.4289,28.8926 c 6.5704,3.8423 14.6842,3.9258 21.3348,0.2219 14.434,-8.0411 39.9981,-22.2769 54.7249,-30.4801 6.9857,-3.894 11.314,-11.262 11.314,-19.258 v -6.7685 z" />
      <path
         style="clip-rule:evenodd;fill:#333333;fill-opacity:1;fill-rule:evenodd;stroke:none;stroke-width:0.47201;stroke-linejoin:round;stroke-miterlimit:1.414;stroke-opacity:1"
         inkscape:connector-curvature="0"
         id="path885-73-2-6-29-1"
         d="m 8176.2629,-707.36319 v -57.7051 c 0,-7.504 -3.9743,-14.4463 -10.4436,-18.2479 -13.8852,-8.1577 -38.4156,-22.5706 -53.4387,-31.3981 -7.9344,-4.6597 -17.7901,-4.5549 -25.6207,0.2737 -13.2965,8.1989 -34.0413,20.9903 -47.4322,29.249 -8.0762,4.9798 -12.9945,13.7875 -12.9945,23.275 v 59.0824 c 0,9.4109 4.9939,18.1138 13.1172,22.8627 l 49.4289,28.8926 c 6.5704,3.8423 14.6842,3.9258 21.3348,0.2219 14.434,-8.0411 39.9981,-22.2769 54.7249,-30.4801 6.9857,-3.894 11.314,-11.262 11.314,-19.258 v -6.7685 z" />
      <path
         style="clip-rule:evenodd;fill:#333333;fill-opacity:1;fill-rule:evenodd;stroke:none;stroke-width:0.47201;stroke-linejoin:round;stroke-miterlimit:1.414;stroke-opacity:1"
         inkscape:connector-curvature="0"
         id="path885-73-2-6-9"
         d="m 6997.9618,-1415.9086 v -57.7051 c 0,-7.504 -3.9743,-14.4463 -10.4436,-18.2479 -13.8852,-8.1577 -38.4156,-22.5706 -53.4387,-31.3981 -7.9344,-4.6597 -17.7901,-4.5549 -25.6207,0.2737 -13.2965,8.1989 -34.0413,20.9903 -47.4322,29.249 -8.0762,4.9798 -12.9945,13.7875 -12.9945,23.275 v 59.0824 c 0,9.4109 4.9939,18.1138 13.1172,22.8627 l 49.4289,28.8926 c 6.5704,3.8423 14.6842,3.9258 21.3348,0.2219 14.434,-8.0411 39.9981,-22.2769 54.7249,-30.4801 6.9857,-3.894 11.314,-11.262 11.314,-19.258 v -6.7685 z" />
      <path
         style="clip-rule:evenodd;fill:#333333;fill-opacity:1;fill-rule:evenodd;stroke:none;stroke-width:0.47201;stroke-linejoin:round;stroke-miterlimit:1.414;stroke-opacity:1"
         inkscape:connector-curvature="0"
         id="path885-73-2-6-4-8"
         d="m 7783.517,-1415.9086 v -57.7051 c 0,-7.504 -3.9743,-14.4463 -10.4436,-18.2479 -13.8852,-8.1577 -38.4156,-22.5706 -53.4387,-31.3981 -7.9344,-4.6597 -17.7901,-4.5549 -25.6207,0.2737 -13.2965,8.1989 -34.0413,20.9903 -47.4322,29.249 -8.0762,4.9798 -12.9945,13.7875 -12.9945,23.275 v 59.0824 c 0,9.4109 4.9939,18.1138 13.1172,22.8627 l 49.4289,28.8926 c 6.5704,3.8423 14.6842,3.9258 21.3348,0.2219 14.434,-8.0411 39.9981,-22.2769 54.7249,-30.4801 6.9857,-3.894 11.314,-11.262 11.314,-19.258 v -6.7685 z" />
      <path
         style="clip-rule:evenodd;fill:#333333;fill-opacity:1;fill-rule:evenodd;stroke:none;stroke-width:0.47201;stroke-linejoin:round;stroke-miterlimit:1.414;stroke-opacity:1"
         inkscape:connector-curvature="0"
         id="path885-73-2-6-5-1"
         d="M 7783.5353,-1.7186864 V -59.423786 c 0,-7.504 -3.9743,-14.4463 -10.4436,-18.2479 -13.8852,-8.1577 -38.4156,-22.570604 -53.4387,-31.398104 -7.9344,-4.6597 -17.7901,-4.5549 -25.6207,0.2737 -13.2965,8.1989 -34.0413,20.990304 -47.4322,29.249004 -8.0762,4.9798 -12.9945,13.7875 -12.9945,23.275 V 2.8103136 c 0,9.4109004 4.9939,18.1138004 13.1172,22.8627004 l 49.4289,28.8926 c 6.5704,3.8423 14.6842,3.9258 21.3348,0.2219 14.434,-8.0411 39.9981,-22.2769 54.7249,-30.4801 6.9857,-3.894 11.314,-11.262 11.314,-19.2580004 v -6.7685 z" />
      <path
         d="m 8402.7803,-2755.9755 -79.3327,-15.7493 151.3512,-218.9321 -320.7294,245.4322 79.3328,15.7493 -151.3515,218.932 320.7296,-245.4321"
         style="fill:#9ad14b;fill-opacity:1;fill-rule:nonzero;stroke:none;stroke-width:10.4531;stroke-miterlimit:4;stroke-dasharray:none;stroke-opacity:1"
         id="path2558-2-2-7-1-4-4"
         inkscape:connector-curvature="0" />
    </g>
  </g>
</svg>
